<svg width="104" height="104" viewBox="0 0 104 104" fill="none" xmlns="http://www.w3.org/2000/svg">
<g filter="url(#filter0_d_503_55)">
<rect width="100" height="100" rx="50" fill="#FFD755"/>
<path d="M27.4062 51.8047H30.3164L31.0781 52.7422C31.498 52.0684 31.7227 51.1211 31.7227 49.9297C31.7227 47.332 30.6484 45.9062 28.7148 45.9062C26.7617 45.9062 25.6875 47.332 25.6875 49.9297C25.6875 52.5273 26.7617 53.9531 28.7148 53.9531L29.0273 53.9336L27.4062 51.8047ZM35.5508 49.9297C35.5508 52.3809 34.7305 54.2461 33.4219 55.4766L35.5508 58.0742H32.2305L31.1562 56.8047C30.3945 57.0684 29.5742 57.1953 28.7148 57.1953C24.8477 57.1953 21.8594 54.6172 21.8594 49.9297C21.8594 45.2227 24.8477 42.6641 28.7148 42.6641C32.543 42.6641 35.5508 45.2227 35.5508 49.9297ZM46.3125 57.2148C43.2852 57.2148 41.4492 55.4375 41.4492 53.25C41.4492 51.6484 42.4258 50.6914 43.9102 49.6758C43.2852 48.8164 42.7383 47.7617 42.7383 46.5312C42.7383 44.3828 44.3789 42.6445 46.8398 42.6445C49.2031 42.6445 50.668 44.2461 50.668 46.1992C50.668 47.5078 49.9844 48.6797 48.793 49.5195L48.0898 50.0273L49.9648 52.0977C50.3555 51.4141 50.5898 50.5938 50.5898 49.6953H53.5391C53.5391 51.5508 53.1094 53.2598 52.1523 54.5195L54.3789 57H50.668L49.9258 56.1992C48.793 56.9414 47.5234 57.2148 46.3125 57.2148ZM44.9844 52.9766C44.9844 53.8164 45.6094 54.3242 46.5859 54.3242C47.0156 54.3242 47.4551 54.2266 47.8945 54.0312L45.707 51.7266C45.2969 52.0488 44.9844 52.4199 44.9844 52.9766ZM45.7461 46.5703C45.7461 47.0586 46.0195 47.5469 46.4492 48.0938L47.0547 47.7227C47.6992 47.3125 47.9141 46.8438 47.9141 46.4531C47.9141 45.9844 47.5625 45.5547 46.8398 45.5547C46.1758 45.5742 45.7461 45.9648 45.7461 46.5703ZM63.0898 57H59.0664L63.7734 42.8594H68.832L73.5195 57H69.5156L68.6758 54.2266H63.9297L63.0898 57ZM64.7891 51.4141H67.8164L66.3516 46.668H66.2344L64.7891 51.4141ZM78.6367 42.8594V57H74.9258V42.8594H78.6367Z" fill="white"/>
</g>
<defs>
<filter id="filter0_d_503_55" x="0" y="0" width="104" height="104" filterUnits="userSpaceOnUse" color-interpolation-filters="sRGB">
<feFlood flood-opacity="0" result="BackgroundImageFix"/>
<feColorMatrix in="SourceAlpha" type="matrix" values="0 0 0 0 0 0 0 0 0 0 0 0 0 0 0 0 0 0 127 0" result="hardAlpha"/>
<feOffset dx="2" dy="2"/>
<feGaussianBlur stdDeviation="1"/>
<feComposite in2="hardAlpha" operator="out"/>
<feColorMatrix type="matrix" values="0 0 0 0 0 0 0 0 0 0 0 0 0 0 0 0 0 0 0.25 0"/>
<feBlend mode="normal" in2="BackgroundImageFix" result="effect1_dropShadow_503_55"/>
<feBlend mode="normal" in="SourceGraphic" in2="effect1_dropShadow_503_55" result="shape"/>
</filter>
</defs>
</svg>
